<svg width="512" height="512" viewBox="0 0 512 512" fill="none" xmlns="http://www.w3.org/2000/svg">
  <!-- Background circle with warm theater color -->
  <circle cx="256" cy="256" r="256" fill="#F59E42"/>

  <!-- Theater masks combined in one icon -->
  <!-- Happy mask (left side) -->
  <path d="M160 180c-50 0-90 40-90 90 0 30 15 56 37 72l16-16c-15-11-25-29-25-48 0-35 28-63 62-63 20 0 38 10 49 25l15-15c-16-27-46-45-64-45z" fill="white"/>
  <circle cx="135" cy="240" r="12" fill="#2A2722"/>
  <circle cx="185" cy="240" r="12" fill="#2A2722"/>
  <path d="M115 280c10 20 30 33 53 33s43-13 53-33" stroke="#2A2722" stroke-width="8" stroke-linecap="round" fill="none"/>

  <!-- Sad mask (right side) -->
  <path d="M352 180c50 0 90 40 90 90 0 30-15 56-37 72l-16-16c15-11 25-29 25-48 0-35-28-63-62-63-20 0-38 10-49 25l-15-15c16-27 46-45 64-45z" fill="white"/>
  <circle cx="327" cy="240" r="12" fill="#2A2722"/>
  <circle cx="377" cy="240" r="12" fill="#2A2722"/>
  <path d="M317 300c10-15 25-25 43-25s33 10 43 25" stroke="#2A2722" stroke-width="8" stroke-linecap="round" fill="none"/>

  <!-- Theater curtain accent at top -->
  <path d="M0 0h512v60l-40 20-40-20-40 20-40-20-40 20-40-20-40 20-40-20-40 20-40-20-40 20-40-20-40 20L0 60V0z" fill="#D77A1E" opacity="0.3"/>
</svg>
